<?xml version="1.0" encoding="utf-8"?>
<!-- Generator: Adobe Illustrator 20.0.0, SVG Export Plug-In . SVG Version: 6.00 Build 0)  -->
<svg version="1.1" id="Layer_1" xmlns="http://www.w3.org/2000/svg" xmlns:xlink="http://www.w3.org/1999/xlink" x="0px" y="0px"
	 viewBox="0 0 142.1 253.1" style="enable-background:new 0 0 142.1 253.1;" xml:space="preserve">
<style type="text/css">
	.st0{fill:#76797B;}
	.st1{fill:none;}
</style>
<title>Asset 1</title>
<g id="Layer_2">
	<g id="Layer_1-2">
		<path class="st0" d="M73,253.1L48.1,253l0.4-110.4c0-9.7,0.5-19.2,1.3-28.4c-15.4,4.2-31,7.5-46.7,9.7L0,99.2
			c18.3-2.6,36.3-6.6,53.9-12.2c2.4-12,5.9-23.8,10.4-35.2c9.2-22.7,21.6-39.5,35-47.2c13.1-7.6,23-4.1,27.7-1.4
			c6.9,4,15.1,13.4,15.1,35.2c-0.1,28.1-22.4,50.8-66.3,67.3c-1.7,12.2-2.5,24.5-2.4,36.8L73,253.1z M114.7,24.9
			c-1.1,0.2-4,1.3-8,5.1c-8.6,8-18,23.5-24.6,46.2c19.9-9.6,35.1-22.1,35.2-37.7C117.2,30,115.5,26,114.7,24.9z M1.6,110.6L0,98.3
			l0,0L1.6,110.6z"/>
		<line class="st1" x1="7.5" y1="161.9" x2="129.6" y2="140.3"/>
		
			<rect x="6.6" y="138.7" transform="matrix(0.9847 -0.1743 0.1743 0.9847 -25.2867 14.2696)" class="st0" width="124" height="24.8"/>
	</g>
</g>
</svg>
